<svg id="Capa_1" data-name="Capa 1" xmlns="http://www.w3.org/2000/svg" viewBox="0 0 262.42 398"><defs><style>.cls-1{fill:#31C48D;}.cls-2{fill:#3F3D75;}.cls-3{fill:#7371E3;}</style></defs><path class="cls-1" d="M0,265H132a0,0,0,0,1,0,0V398a0,0,0,0,1,0,0H70.5A70.5,70.5,0,0,1,0,327.5V265A0,0,0,0,1,0,265Z"/><path class="cls-2" d="M0,1H59.5A72.5,72.5,0,0,1,132,73.5V265a0,0,0,0,1,0,0H0a0,0,0,0,1,0,0V1A0,0,0,0,1,0,1Z"/><path class="cls-3" d="M306,206l3,265c10-.53,57.35-4.1,93.93-43.64,4-4.29,44.49-49.5,35.07-108.36C428.76,261.26,375.16,213.46,306,206Z" transform="translate(-177 -206)"/></svg>
